<?xml version="1.0" encoding="UTF-8"?>
<svg xmlns="http://www.w3.org/2000/svg" viewBox="0 0 115.25 134.22">
  <defs>
    <style>
      .cls-1, .cls-2, .cls-3 {
        fill: #fff;
      }

      .cls-1, .cls-2, .cls-3, .cls-4, .cls-5, .cls-6, .cls-7 {
        stroke-miterlimit: 10;
      }

      .cls-1, .cls-2, .cls-4, .cls-5, .cls-6 {
        stroke: #231f20;
      }

      .cls-1, .cls-5, .cls-6 {
        stroke-width: 2px;
      }

      .cls-2, .cls-3, .cls-4 {
        stroke-width: 3px;
      }

      .cls-3, .cls-7 {
        stroke: #fff;
      }

      .cls-4, .cls-5, .cls-7 {
        fill: none;
      }

      .cls-6, .cls-8 {
        fill: #231f20;
      }

      .cls-7 {
        stroke-width: 6px;
      }

      .cls-8 {
        font-family: Bahnschrift, Bahnschrift;
        font-size: 17px;
        font-variation-settings: 'wght' 400, 'wdth' 100;
      }
    </style>
  </defs>
  <g id="Layer_4" data-name="Layer 4">
    <path class="cls-4" d="m82.43,53.3s24.63-22.45,13.75,12.08"/>
    <line class="cls-4" x1="27.99" y1="123.86" x2="27.72" y2="125.25"/>
    <polyline class="cls-4" points="11.81 114.83 11.71 114.37 11.71 114.35 11.02 110.94"/>
    <polyline class="cls-4" points="91.62 115 91.4 116.84 91.37 117.1 91.36 117.11"/>
    <line class="cls-4" x1="76.15" y1="125.76" x2="75.68" y2="123.79"/>
    <path class="cls-2" d="m91.36,117.11l-1.88,15.61h-11.68l-1.65-6.96c-3.53,1.06-7.25,1.62-11.13,1.62h-24.57c-4.46,0-8.74-.75-12.73-2.13l-1.47,7.47h-10.82l-3.62-17.89"/>
    <path class="cls-2" d="m12.67,115.41c-.15-.15-.29-.3-.42-.45-.19-.2-.37-.4-.54-.61-.08-.08-.14-.15-.21-.23-.07-.07-.14-.15-.21-.23-.1-.12-.21-.24-.31-.37-.34-.4-.67-.8-.99-1.21-.05-.06-.1-.13-.15-.19-.36-.47-.72-.95-1.06-1.43-.02-.03-.04-.06-.06-.09-.37-.52-.72-1.04-1.06-1.57-.17-.26-.34-.53-.5-.8-.16-.27-.32-.53-.48-.81-.16-.26-.31-.54-.46-.81-.15-.28-.3-.55-.44-.83-.14-.27-.29-.55-.42-.83-.13-.26-.25-.53-.37-.79-.77-1.66-1.42-3.36-1.94-5.11-.1-.32-.19-.64-.27-.96-.09-.3-.16-.62-.24-.92,0-.02-.01-.03-.01-.05,0-.01-.01-.02-.01-.03-.03-.15-.07-.29-.1-.44-.11-.48-.21-.95-.3-1.44-.12-.68-.23-1.36-.32-2.05-.04-.32-.08-.65-.11-.97,0-.03,0-.07,0-.11-.04-.36-.07-.72-.09-1.08,0-.04-.01-.08-.01-.12-.03-.4-.05-.81-.06-1.22s-.02-.82-.02-1.23c0-23.91,22.94-43.3,51.23-43.3s51.23,19.39,51.23,43.3c0,.38-.01.76-.02,1.14v.03c0,.37-.03.74-.05,1.11-.01.07-.01.14-.02.2,0,.11-.02.22-.03.33-.01.25-.03.5-.06.75-.02.26-.05.51-.08.76.03-.15.04-.29.06-.44.03-.36.07-.71.09-1.07l4.71.34c3.08.23,5.4,2.91,5.18,5.99l-.58,8.05c-.22,3.08-2.9,5.4-5.98,5.18l-9.8-.7-.27-.02c-1.09,1.59-2.3,3.12-3.61,4.58-.22.25-.45.49-.68.73-.23.25-.47.5-.71.75-.23.24-.47.47-.71.7"/>
    <path class="cls-4" d="m12.25,114.96c-.19-.19-.36-.39-.54-.59-.07-.08-.15-.17-.21-.25.07.08.13.15.21.23.17.21.35.41.54.61Z"/>
    <path class="cls-4" d="m103.78,91.99c.03-.25.05-.5.06-.75.01-.11.02-.22.03-.33.01-.06.01-.13.02-.2-.01.18-.02.35-.04.53-.02.36-.06.71-.09,1.07"/>
    <ellipse class="cls-3" cx="75.46" cy="60.36" rx="10.13" ry="6.3" transform="translate(-16.93 88.67) rotate(-55.69)"/>
    <path class="cls-4" d="m103.78,91.99c.03-.25.05-.5.06-.75h.01c-.02.36-.06.71-.09,1.07"/>
    <path class="cls-4" d="m1.8,93.16c.08.69.21,1.37.32,2.05-.13-.68-.24-1.36-.32-2.05Z"/>
    <path class="cls-4" d="m91.4,116.84c.24-.23.48-.46.71-.7.24-.25.48-.5.71-.75.23-.24.46-.48.68-.73,1.31-1.46,2.52-2.99,3.61-4.58l.27.02c-1.41,2.11-3.03,4.08-4.82,5.87-.39.39-.78.76-1.19,1.13h0"/>
    <path class="cls-4" d="m103.87,90.91c0,.11,0,.22-.02.33h-.01c.01-.11.02-.22.03-.33Z"/>
    <ellipse class="cls-3" cx="76.76" cy="122.5" rx="5.66" ry=".39"/>
    <ellipse class="cls-3" cx="87.56" cy="111.88" rx="3.33" ry="2.68"/>
    <path class="cls-5" d="m39.14,51.13c2.43-.95,16.78-4.18,27.18.23"/>
    <path class="cls-4" d="m92.82,115.39s-2.21,1.99-1.68,3.52"/>
    <path class="cls-4" d="m10.98,113.52s1.81,2.02,1.43,4.28"/>
    <circle class="cls-6" cx="95.36" cy="90.1" r="1.67"/>
    <circle class="cls-1" cx="32.88" cy="14.29" r="13.29"/>
    <path class="cls-1" d="m64.9,46.75c0,1.19-.17,2.35-.48,3.43-8.49-2.09-17.97-1.08-23.63.05-.34-1.1-.51-2.26-.51-3.47,0-6.8,5.51-12.31,12.31-12.31s12.31,5.51,12.31,12.31Z"/>
    <text class="cls-8" transform="translate(47.56 53.75)"><tspan x="0" y="0">$</tspan></text>
    <text class="cls-8" transform="translate(27.72 20.59)"><tspan x="0" y="0">$</tspan></text>
    <path class="cls-7" d="m38.99,54.81c2.43-.95,16.78-4.18,27.18.23"/>
  </g>
  <g id="Layer_2" data-name="Layer 2">
    <path class="cls-4" d="m67.2,55.45s24.63-22.45,13.75,12.08"/>
  </g>
</svg>