<?xml version="1.0" encoding="UTF-8"?>
<svg id="Layer_3" data-name="Layer 3" xmlns="http://www.w3.org/2000/svg" viewBox="0 0 155.43 159.23">
  <defs>
    <style>
      .cls-1 {
        fill: none;
        stroke-width: 3px;
      }

      .cls-1, .cls-2 {
        stroke: #231f20;
      }

      .cls-1, .cls-2, .cls-3 {
        stroke-miterlimit: 10;
      }

      .cls-2 {
        fill: #231f20;
        stroke-width: 4px;
      }

      .cls-3 {
        fill: #fff;
        stroke: #fff;
      }
    </style>
  </defs>
  <path class="cls-1" d="m3.42,99.02l22.54-11.15c9.33,5.72,20.8,9.09,33.23,9.09,31.26,0,56.61-21.37,56.61-47.73S90.44,1.5,59.18,1.5,2.57,22.87,2.57,49.23c0,9.82,3.53,18.95,9.56,26.54.2.25.4.5.6.74L1.72,97.01c-.71,1.12.43,2.48,1.7,2.01Z"/>
  <path class="cls-2" d="m151.56,121.63l-21.86-11.15c-9.05,5.72-20.18,9.09-32.23,9.09-30.32,0-54.91-21.37-54.91-47.73s24.59-47.73,54.91-47.73,54.91,21.37,54.91,47.73c0,9.82-3.42,18.95-9.27,26.54-.19.25-.39.5-.58.74l10.68,20.5c.69,1.12-.42,2.48-1.65,2.01Z"/>
  <circle class="cls-3" cx="73.61" cy="73.86" r="4.06"/>
  <circle class="cls-3" cx="97.04" cy="73.86" r="4.06"/>
  <circle class="cls-3" cx="119.85" cy="73.86" r="4.06"/>
</svg>