<?xml version="1.0" encoding="UTF-8"?>
<svg id="Layer_4" data-name="Layer 4" xmlns="http://www.w3.org/2000/svg" viewBox="0 0 110.01 141.8">
  <defs>
    <style>
      .cls-1, .cls-2 {
        fill: #fff;
      }

      .cls-1, .cls-2, .cls-3, .cls-4 {
        stroke-miterlimit: 10;
      }

      .cls-1, .cls-3, .cls-4 {
        stroke: #231f20;
      }

      .cls-1, .cls-4 {
        stroke-width: 2px;
      }

      .cls-2 {
        stroke: #fff;
      }

      .cls-2, .cls-3 {
        stroke-width: 3px;
      }

      .cls-3, .cls-4 {
        fill: none;
      }
    </style>
  </defs>
  <path class="cls-3" d="m87.43,60.12c-2.41-20.58-19.92-36.56-41.15-36.56S7.54,39.54,5.13,60.12c-.41,1.97-.63,4.01-.63,6.11l-3,55.99c0,9.98,8.09,18.08,18.08,18.08h53.41c9.98,0,18.08-8.09,18.08-18.08l-3-55.99c0-2.1-.22-4.14-.63-6.11Zm-13.13,40.65c-19.39-.37-38.79-1.38-58.18-.69-6.45.23-6.42-9.77,0-10,19.39-.68,38.79.32,58.18.69,6.44.12,6.44,10.12,0,10Z"/>
  <path class="cls-3" d="m58.21,25.64l8.78-21.87c.79-1.96,3.08-2.83,4.97-1.88l8.99,4.5c1.54.77,2.32,2.53,1.87,4.19l-7.75,23.2"/>
  <path class="cls-3" d="m32.76,25.81L24.16,3.94c-.77-1.96-3.02-2.83-4.87-1.88l-8.8,4.5c-1.51.77-2.28,2.53-1.83,4.19l8.06,24.78"/>
  <path class="cls-4" d="m10.87,62.6c.33-2.08,4-32.55,35.18-32.55,28.83,0,35.81,29.89,36.22,32.55"/>
  <ellipse class="cls-2" cx="45.72" cy="96.47" rx="38.6" ry="14.54"/>
  <path class="cls-1" d="m13.08,99.65l-.52,21.79c-.14,1.98,1.43,3.67,3.42,3.67h60.75c1.97,0,3.53-1.66,3.42-3.62l-1.26-21.79c-.1-1.81-1.61-3.23-3.42-3.23H16.49c-1.8,0-3.29,1.39-3.42,3.19Z"/>
  <rect class="cls-1" x="30.1" y="47.59" width="31.48" height="10.02" rx="2.48" ry="2.48"/>
  <path class="cls-1" d="m104.72,123.5l-13.66-.02-2.37-40.47,18.59.02,1.73,36c.1,2.44-1.85,4.48-4.29,4.47Z"/>
  <line class="cls-1" x1="12.55" y1="104.62" x2="79.13" y2="104.62"/>
  <path class="cls-1" d="m88.75,71.32h12.75c1.28,0,2.32,1.04,2.32,2.32v9.29h-15.07v-11.61h0Z" transform="translate(-1.06 1.34) rotate(-.79)"/>
</svg>