<?xml version="1.0" encoding="UTF-8"?>
<svg id="Layer_4" data-name="Layer 4" xmlns="http://www.w3.org/2000/svg" viewBox="0 0 194.02 140.42">
  <defs>
    <style>
      .cls-1 {
        fill: #fff;
      }

      .cls-1, .cls-2 {
        stroke-width: 3px;
      }

      .cls-1, .cls-2, .cls-3 {
        stroke: #231f20;
        stroke-miterlimit: 10;
      }

      .cls-2, .cls-3 {
        fill: none;
      }

      .cls-3 {
        stroke-width: 2px;
      }
    </style>
  </defs>
  <path class="cls-3" d="m49.26,29.39S39.02,1.81,86.59,1.02c0,0-3.33,28.42-37.33,28.37Z"/>
  <path class="cls-2" d="m44.76,125.33c-12.23-32.94,4.67-96.94,4.67-96.94"/>
  <path class="cls-3" d="m42.05,69.84s17.2-13.53,30.73-5.7"/>
  <path class="cls-3" d="m45.54,44.08s-8.02-16.2-30.6-16.19"/>
  <path class="cls-1" d="m88.5,128.79c-.03.43-.09.86-.18,1.27H4.74c0-.12,0-.25,0-.37.16-3.71,3.29-6.57,7-6.41,1.24.05,2.39.44,3.36,1.08.51.33,1.22.1,1.41-.48,1.1-3.31,4.29-5.62,7.94-5.46,2.75.12,5.11,1.61,6.45,3.79.05.08.15.08.21,0,1.9-2.74,5.11-4.48,8.69-4.33,2.7.12,5.1,1.3,6.83,3.1.04.05.12.03.14-.03,1.7-3.85,5.66-6.47,10.12-6.27,5.22.23,9.39,4.19,10.02,9.2,0,.04.05.07.09.05.94-.42,2-.64,3.09-.59.85.04,1.65.23,2.39.55,0,0,0,0,0,0,2.01-3.43,6.32-5.32,10.72-3.62,3.48,1.34,5.52,4.8,5.28,8.52Z"/>
  <path class="cls-3" d="m49.36,27c-.3,1.02,5.31-10.5,17.72-15.51"/>
  <path class="cls-3" d="m43.65,70.43s5.53-32.07,51.47-6.39c0,0-18.98,25.33-51.47,6.39Z"/>
  <path class="cls-3" d="m45.44,44.73S50.05,13.3,1.29,24.64c0,0,9.44,28.83,44.15,20.09Z"/>
  <path class="cls-3" d="m157.59,27.58s-7.8-21.01,28.44-21.61c0,0-2.54,21.65-28.44,21.61Z"/>
  <path class="cls-2" d="m154.17,100.67c-9.32-25.09,3.56-73.86,3.56-73.86"/>
  <path class="cls-3" d="m152.1,58.4s13.1-10.31,23.41-4.34"/>
  <path class="cls-3" d="m154.76,38.77s-6.11-12.34-23.32-12.34"/>
  <path class="cls-3" d="m157.68,25.76c-.23.78,4.05-8,13.5-11.82"/>
  <path class="cls-3" d="m153.32,58.85s4.21-24.43,39.21-4.87c0,0-14.46,19.3-39.21,4.87Z"/>
  <path class="cls-3" d="m154.69,39.27s3.51-23.95-33.64-15.31c0,0,7.19,21.97,33.64,15.31Z"/>
  <rect class="cls-1" x="128.67" y="96.34" width="50.13" height="11.73" rx="4.25" ry="4.25"/>
  <path class="cls-1" d="m166.96,138.92h-26.24c-2.02,0-3.71-1.53-3.91-3.54l-2.7-27.31h39.46l-2.7,27.31c-.2,2.01-1.89,3.54-3.91,3.54Z"/>
</svg>