<?xml version="1.0" encoding="UTF-8"?>
<svg id="Layer_3" data-name="Layer 3" xmlns="http://www.w3.org/2000/svg" viewBox="0 0 205.6 215.73">
  <defs>
    <style>
      .cls-1 {
        stroke-width: 3px;
      }

      .cls-1, .cls-2 {
        fill: #fff;
      }

      .cls-1, .cls-2, .cls-3, .cls-4, .cls-5 {
        stroke: #231f20;
        stroke-miterlimit: 10;
      }

      .cls-2, .cls-4 {
        stroke-width: 4px;
      }

      .cls-3, .cls-4 {
        fill: #231f20;
      }

      .cls-3, .cls-5 {
        stroke-width: 7px;
      }

      .cls-5 {
        fill: none;
      }
    </style>
  </defs>
  <circle class="cls-2" cx="141.29" cy="91.95" r="10.3"/>
  <circle class="cls-5" cx="141.29" cy="91.95" r="40.21"/>
  <polygon class="cls-3" points="145.55 33.96 133.77 33.96 131.77 49.74 147.55 49.74 145.55 33.96"/>
  <polygon class="cls-3" points="186.36 51.26 177.59 43.39 165.56 53.79 177.3 64.34 186.36 51.26"/>
  <polygon class="cls-3" points="103.38 45.49 94.76 53.52 104.04 66.43 115.6 55.68 103.38 45.49"/>
  <polygon class="cls-3" points="179.1 136.08 187.56 127.88 178 115.16 166.68 126.15 179.1 136.08"/>
  <polygon class="cls-3" points="137.77 152.09 149.54 151.64 150.93 135.79 135.16 136.4 137.77 152.09"/>
  <polygon class="cls-3" points="201.31 98.46 201.94 86.7 186.29 83.85 185.44 99.61 201.31 98.46"/>
  <polygon class="cls-3" points="79.59 86.06 79.59 97.84 95.37 99.84 95.37 84.06 79.59 86.06"/>
  <polygon class="cls-3" points="93.84 131.32 102.4 139.42 114.69 129.33 103.23 118.49 93.84 131.32"/>
  <line class="cls-4" x1="112.07" y1="64.34" x2="131.77" y2="84.06"/>
  <line class="cls-4" x1="147.55" y1="83.79" x2="168.98" y2="62.82"/>
  <line class="cls-4" x1="148.15" y1="99.61" x2="168.98" y2="121.08"/>
  <line class="cls-4" x1="131.77" y1="99.61" x2="114.69" y2="118.49"/>
  <circle class="cls-5" cx="111.44" cy="177.44" r="21.78"/>
  <polygon class="cls-3" points="122.69 145.73 116.46 144.34 113.54 152.44 121.88 154.31 122.69 145.73"/>
  <polygon class="cls-3" points="89.68 152.02 85.09 156.45 90.25 163.35 96.4 157.42 89.68 152.02"/>
  <polygon class="cls-3" points="144.6 171.26 142.86 165.12 134.34 166.42 136.67 174.64 144.6 171.26"/>
  <circle class="cls-1" cx="111.44" cy="177.44" r="8.96"/>
  <circle class="cls-2" cx="47.85" cy="46.98" r="7.37"/>
  <circle class="cls-5" cx="47.85" cy="46.98" r="28.78"/>
  <polygon class="cls-3" points="38.46 4.21 30.35 6.51 32.05 17.77 42.92 14.69 38.46 4.21"/>
  <polygon class="cls-3" points="70.95 10.16 63.38 6.45 57.12 15.96 67.26 20.93 70.95 10.16"/>
  <polygon class="cls-3" points="10.67 22.38 6.3 29.59 15.22 36.67 21.08 27.01 10.67 22.38"/>
  <polygon class="cls-3" points="83.51 70.99 87.73 63.69 78.66 56.8 73.01 66.58 83.51 70.99"/>
  <polygon class="cls-3" points="57.16 89.09 65.18 86.48 63.04 75.29 52.3 78.79 57.16 89.09"/>
  <polygon class="cls-3" points="90.46 38.75 88.6 30.52 77.26 31.62 79.76 42.64 90.46 38.75"/>
  <polygon class="cls-3" points="4.21 54.96 6.51 63.08 17.77 61.37 14.69 50.51 4.21 54.96"/>
  <polygon class="cls-3" points="21.86 84.36 29.33 88.26 35.83 78.91 25.82 73.68 21.86 84.36"/>
  <polygon class="cls-3" points="101.49 210.59 107.77 211.73 110.37 203.52 101.96 201.99 101.49 210.59"/>
  <polygon class="cls-3" points="134.22 203 138.63 198.39 133.21 191.7 127.3 197.87 134.22 203"/>
  <polygon class="cls-3" points="78.58 185.95 80.57 192.02 89.03 190.39 86.37 182.26 78.58 185.95"/>
</svg>