<?xml version="1.0" encoding="UTF-8"?>
<svg id="Layer_3" data-name="Layer 3" xmlns="http://www.w3.org/2000/svg" viewBox="0 0 220.6 339.45">
  <defs>
    <style>
      .cls-1 {
        fill: #fff;
      }

      .cls-1, .cls-2, .cls-3, .cls-4 {
        stroke: #231f20;
        stroke-miterlimit: 10;
      }

      .cls-1, .cls-2, .cls-4 {
        stroke-width: 3px;
      }

      .cls-2 {
        fill: none;
      }

      .cls-3 {
        stroke-width: 2px;
      }

      .cls-3, .cls-4, .cls-5 {
        fill: #231f20;
      }
    </style>
  </defs>
  <path class="cls-4" d="m214.75,27.42s4.92,20.87,3.19,33.76l-19.37,1.47c-9.3.71-18.65.57-27.92-.41l-18.87-1.99s-1.58-16.93,2.95-34.19"/>
  <path class="cls-2" d="m141.97,155.58h-62.39c-1.44,0-2.53-1.29-2.3-2.71l10.89-67.31c.23-1.4,1.64-2.28,3-1.86,4.08,1.28,8.92,2.82,18.93,2.82,8.36,0,14.14-1.55,18.53-2.78,1.32-.37,2.67.47,2.92,1.81l12.73,67.25c.27,1.44-.83,2.77-2.29,2.77Z"/>
  <circle class="cls-2" cx="31.67" cy="31.67" r="30.17"/>
  <path class="cls-2" d="m61.34,132.89H4.82c-1.36,0-2.4-1.22-2.18-2.56l9.87-60.99c.21-1.33,1.55-2.16,2.84-1.76,3.69,1.15,8.09,2.54,17.11,2.54,7.55,0,12.79-1.39,16.76-2.51,1.25-.35,2.52.45,2.76,1.72l11.54,60.94c.26,1.36-.79,2.62-2.17,2.62Z"/>
  <path class="cls-2" d="m214.6,133.24h-57.19c-1.19,0-2.09-1.06-1.9-2.24l9.97-61.64c.19-1.16,1.35-1.88,2.47-1.53,3.75,1.17,8.15,2.63,17.42,2.63,7.73,0,13.04-1.46,17.06-2.59,1.09-.31,2.2.39,2.41,1.5l11.66,61.58c.22,1.19-.69,2.29-1.89,2.29Z"/>
  <polygon class="cls-3" points="77.63 35.79 69.6 105.45 84.38 108.93 88.58 82.94 110.08 86.53 131.06 83.07 135.95 108.93 151.78 104.98 140.8 36.28 77.63 35.79"/>
  <circle class="cls-1" cx="109.21" cy="44.25" r="33.18"/>
  <path class="cls-3" d="m112.25,11.08l-12.16,12.22c-2.9,2.91-5.92,5.69-9.06,8.33l-14.99,12.62s5.21-33.69,36.21-33.17Z"/>
  <path class="cls-3" d="m19.97,3.85s-2.58,20.23,7.28,23.81l34.59,1.37S61.56-1.57,19.97,3.85Z"/>
  <path class="cls-3" d="m2.22,25.11S14.03,18.16,19.97,3.85c0,0-17.81,7.85-17.74,21.26Z"/>
  <circle class="cls-1" cx="184.58" cy="32.02" r="30.17"/>
  <path class="cls-4" d="m158.47,24.75h52.42s-5.87-21.56-29.34-22.9c0,0-23.08,5.42-23.08,22.9Z"/>
  <path class="cls-3" d="m109.21,11.08l10.84,12.22c2.58,2.91,5.27,5.69,8.07,8.33l13.37,12.62s-4.65-33.69-32.28-33.17Z"/>
  <path class="cls-5" d="m97.2,49.7c3.22,0,3.22-5,0-5s-3.22,5,0,5h0Z"/>
  <path class="cls-5" d="m123.45,49.7c3.22,0,3.22-5,0-5s-3.22,5,0,5h0Z"/>
  <path class="cls-5" d="m89.04,59.06c1.39,4.81,5.69,8.82,10.7,9.55.69.1,1.3.12,1.93-.25.52-.3,1.01-.9,1.15-1.49.15-.64.11-1.36-.25-1.93-.33-.51-.87-1.06-1.49-1.15-.51-.07-1.02-.18-1.51-.33-.23-.07-.45-.14-.67-.23-.09-.03-.55-.22-.12-.04s.04.01-.06-.03c-.47-.22-.92-.47-1.36-.75-.2-.13-.39-.27-.58-.41-.21-.15.51.41.1.07-.1-.08-.2-.17-.3-.25-.37-.33-.73-.68-1.06-1.05-.09-.1-.17-.2-.25-.3-.13-.16-.31-.52.07.1-.12-.2-.28-.38-.41-.58-.27-.41-.51-.85-.72-1.29-.08-.18-.2-.59.04.12-.04-.12-.1-.24-.14-.36-.09-.24-.17-.49-.24-.74-.36-1.26-1.78-2.17-3.08-1.75s-2.14,1.73-1.75,3.08h0Z"/>
  <path class="cls-5" d="m173.58,37.77c3.22,0,3.22-5,0-5s-3.22,5,0,5h0Z"/>
  <path class="cls-5" d="m195.85,37.77c3.22,0,3.22-5,0-5s-3.22,5,0,5h0Z"/>
  <path class="cls-5" d="m18.12,37.74c3.22,0,3.22-5,0-5s-3.22,5,0,5h0Z"/>
  <path class="cls-5" d="m42.92,38.98c3.22,0,3.22-5,0-5s-3.22,5,0,5h0Z"/>
  <path class="cls-5" d="m11.21,45.02c1.39,4.81,5.69,8.82,10.7,9.55.69.1,1.3.12,1.93-.25.52-.3,1.01-.9,1.15-1.49.15-.64.11-1.36-.25-1.93-.33-.51-.87-1.06-1.49-1.15-.51-.07-1.02-.18-1.51-.33-.23-.07-.45-.14-.67-.23-.09-.03-.55-.22-.12-.04s.04.01-.06-.03c-.47-.22-.92-.47-1.36-.75-.2-.13-.39-.27-.58-.41-.21-.15.51.41.1.07-.1-.08-.2-.17-.3-.25-.37-.33-.73-.68-1.06-1.05-.09-.1-.17-.2-.25-.3-.13-.16-.31-.52.07.1-.12-.2-.28-.38-.41-.58-.27-.41-.51-.85-.72-1.29-.08-.18-.2-.59.04.12-.04-.12-.1-.24-.14-.36-.09-.24-.17-.49-.24-.74-.36-1.26-1.78-2.17-3.08-1.75s-2.14,1.73-1.75,3.08h0Z"/>
  <path class="cls-5" d="m165.69,46.26c1.39,4.81,5.69,8.82,10.7,9.55.69.1,1.3.12,1.93-.25.52-.3,1.01-.9,1.15-1.49.15-.64.11-1.36-.25-1.93-.33-.51-.87-1.06-1.49-1.15-.51-.07-1.02-.18-1.51-.33-.23-.07-.45-.14-.67-.23-.09-.03-.55-.22-.12-.04s.04.01-.06-.03c-.47-.22-.92-.47-1.36-.75-.2-.13-.39-.27-.58-.41-.21-.15.51.41.1.07-.1-.08-.2-.17-.3-.25-.37-.33-.73-.68-1.06-1.05-.09-.1-.17-.2-.25-.3-.13-.16-.31-.52.07.1-.12-.2-.28-.38-.41-.58-.27-.41-.51-.85-.72-1.29-.08-.18-.2-.59.04.12-.04-.12-.1-.24-.14-.36-.09-.24-.17-.49-.24-.74-.36-1.26-1.78-2.17-3.08-1.75s-2.14,1.73-1.75,3.08h0Z"/>
  <path class="cls-4" d="m215.54,209.79s4.92,20.87,3.19,33.76l-19.37,1.47c-9.3.71-18.65.57-27.92-.41l-18.87-1.99s-1.58-16.93,2.95-34.19"/>
  <path class="cls-2" d="m142.76,337.95h-62.39c-1.44,0-2.53-1.29-2.3-2.71l10.89-67.31c.23-1.4,1.64-2.28,3-1.86,4.08,1.28,8.92,2.82,18.93,2.82,8.36,0,14.14-1.55,18.53-2.78,1.32-.37,2.67.47,2.92,1.81l12.73,67.25c.27,1.44-.83,2.77-2.29,2.77Z"/>
  <circle class="cls-2" cx="32.46" cy="214.03" r="30.17"/>
  <path class="cls-2" d="m62.13,315.26H5.61c-1.36,0-2.4-1.22-2.18-2.56l9.87-60.99c.21-1.33,1.55-2.16,2.84-1.76,3.69,1.15,8.09,2.54,17.11,2.54,7.55,0,12.79-1.39,16.76-2.51,1.25-.35,2.52.45,2.76,1.72l11.54,60.94c.26,1.36-.79,2.62-2.17,2.62Z"/>
  <path class="cls-2" d="m215.39,315.61h-57.19c-1.19,0-2.09-1.06-1.9-2.24l9.97-61.64c.19-1.16,1.35-1.88,2.47-1.53,3.75,1.17,8.15,2.63,17.42,2.63,7.73,0,13.04-1.46,17.06-2.59,1.09-.31,2.2.39,2.41,1.5l11.66,61.58c.22,1.19-.69,2.29-1.89,2.29Z"/>
  <polygon class="cls-3" points="78.42 218.16 70.39 287.82 85.17 291.3 89.37 265.31 110.87 268.9 131.85 265.44 136.74 291.3 152.57 287.35 141.59 218.65 78.42 218.16"/>
  <circle class="cls-1" cx="110" cy="226.62" r="33.18"/>
  <path class="cls-3" d="m113.04,193.45l-12.16,12.22c-2.9,2.91-5.92,5.69-9.06,8.33l-14.99,12.62s5.21-33.69,36.21-33.17Z"/>
  <path class="cls-3" d="m20.76,186.22s-2.58,20.23,7.28,23.81l34.59,1.37s-.28-30.6-41.87-25.18Z"/>
  <path class="cls-3" d="m3.01,207.48s11.81-6.95,17.74-21.26c0,0-17.81,7.85-17.74,21.26Z"/>
  <circle class="cls-1" cx="185.37" cy="214.39" r="30.17"/>
  <path class="cls-4" d="m159.26,207.12h52.42s-5.87-21.56-29.34-22.9c0,0-23.08,5.42-23.08,22.9Z"/>
  <path class="cls-3" d="m110,193.45l10.84,12.22c2.58,2.91,5.27,5.69,8.07,8.33l13.37,12.62s-4.65-33.69-32.28-33.17Z"/>
</svg>